<svg xmlns:svg="http://www.w3.org/2000/svg" xmlns="http://www.w3.org/2000/svg" width="2147" height="676" viewBox="0 0 2147 676" version="1.1"><path d="m1655.1 0.2c-46.4-1-90.5 27.5-122.3 66.8-27 33.3-47.9 76.1-59 124.2-3.5-5.6-6.9-11.5-10.3-18.2-20.9-40.9-34.9-96.8-45.3-143.7a36 36 0 0 0-70.2-0.3c-15.4 66.5-20.1 157.3-36 229.1-7.9 35.9-18.9 66.3-31.2 83.8-12.3 17.6-20.6 23-39.3 22.2A36 36 0 0 0 1239.8 364c-30.4 0.2-41.3-6.6-47.9-14.3-6.6-7.6-11.3-22.1-11.5-44.7-0.3-45.3 19-112.7 29.1-170.8a36 36 0 0 0-69.8-17.1c-17.4 54.4-22.2 121.9-39.1 172.6-8.4 25.3-19.3 45.2-32.3 57.5-13 12.3-27.6 19.3-54.8 18.9A36 36 0 0 0 1013 366c-29 0-32.4-5.3-38.8-21-6.4-15.8-7.7-47.4-2.4-83.9 2.7-18.2 6.7-37.3 11.3-56.4 8.3-27.1 15.2-54.9 21.8-82.5 7.7-28.3 14.7-55.2 17.7-77.1A36 36 0 0 0 952 31.7c-4.3 18.1-8.5 36.2-12.7 54.1-7.9 29-17.8 63.9-26.4 101.3-8.9 28.9-18.8 55.6-30.8 78.8-31.7 61.5-69.5 97.2-148.3 99.1-30.9-0.5-66-6.8-89.4-20.1-13.8-7.8-24-16.4-30.2-29.4 90.7-5.3 163.1-52.5 200.5-111.6 19.9-31.4 30.4-67.1 24.9-102.7-5.5-35.6-29.2-68.9-65.9-88.1a36 36 0 0 0-0.6-0.3C719.2-14.2 654.2 6.9 609.1 55.5 564 104.2 533.9 181.3 535 280.4c0 0 0 0 0 0 0 0 0 0 0 0 0.6 59.5 33.7 104.2 73.8 127 40.2 22.8 85.8 29 124.7 29.6a36 36 0 0 0 1.3 0c73.1-1.6 128.7-32 168.8-76.3 1.2 3.8 2.4 7.6 3.9 11.3 15.2 37.5 55.8 65.8 105.2 65.9 42.7 0.6 79.4-14.4 105-38.6 4.3-4 8.2-8.4 11.9-12.8 2.3 3.5 4.9 6.8 7.7 10.1 22.5 26.1 58.9 39.3 102.2 39.2 42.4 1.4 78.8-22.1 100.4-53 21.7-31.1 33.5-69.1 42.5-109.5 5.5-24.7 9.6-50.3 13.2-75.8 1.3 2.7 2.5 5.4 3.8 8 15.7 30.6 37.8 59.8 66.7 79.1 3.9 39.4 19.7 73.8 44.6 98.8 30.2 30.4 71.5 46.7 115.5 50.2a36 36 0 0 0 0.4 0c107.7 7.4 190.4-49.6 245.7-126.1 30.3-41.9 53.8-89.9 72.8-138.9 7.2 14.3 15.1 27.9 23.3 41.2-0.2 0.3-0.5 0.5-0.7 0.8-42.3 49.2-82.8 100.1-83.6 160.5A36 36 0 0 0 1884 372c0 44.7 17.2 81.1 43.4 102.7 25.8 21.3 56.6 28.2 83.7 28.3 40 1.3 74.5-17.6 95.7-43.3 21.2-25.7 31.5-57.4 30.2-88.9-0.9-30.9-14.8-56.3-30.8-82.7-13.9-22.9-30.7-46.5-47.2-70.7 28.9-30.7 58.2-60 79.4-85.1a36 36 0 1 0-54.9-46.6c-15.2 17.9-38.8 42-64.1 68.6-21.7-39.3-36.4-78.3-34.5-113.3a36 36 0 0 0-70.7-11.2c-22 82.5-54.2 171.9-100.4 235.9-46.2 63.9-100.9 101.9-182.1 96.4-29.9-2.5-54-13.1-70.1-29.2-7-7.1-12.7-15.3-17-25 95.4-1.5 170.2-53.5 204.7-117 17.6-32.4 25.4-69 16.3-104.1-9.1-35.1-37.3-65.7-77.1-80.5a36 36 0 0 0-1.1-0.4C1676.6 2.2 1665.8 0.4 1655.1 0.2ZM482.4 1.5A36 36 0 0 0 447.8 26.6C416.7 120 386.4 215.8 356 295.7 350.2 289.2 344.3 282.7 338.1 276.4 297.2 233.9 248.3 193 186 193a36 36 0 0 0-1.4 0C139 194.8 92.5 211.3 57.4 246.6 22.3 281.9 0.6 334.9 0 401.7a36 36 0 0 0 0 1.3C2.5 498 82.2 569.3 176.6 573A36 36 0 0 0 178 573c75.6 0 135.4-41.6 180-109.1a36 36 0 0 0 0.9-1.4c5.9-9.9 11.6-20.4 17.3-31.4 3.6 4 7.2 8 10.7 11.7l-0.8-0.8C538.5 613.1 716.7 674.9 860.7 676a36 36 0 0 0 1.3 0c77.9-2.3 150.9-36.3 196.4-94.9a36 36 0 1 0-56.9-44.1C971.1 576.2 918.4 602.1 860.6 604 736.7 602.9 579.3 550.6 439.9 394.1a36 36 0 0 0-0.8-0.8c-8.6-9.1-18.9-21.4-29.8-34.6 37.6-91.3 71.2-202.4 106.9-309.2a36 36 0 0 0-33.7-47.9zM1648.1 72.4c5.8-0.6 11.2 0.1 16.2 1.7 21.5 8.2 28.4 18.1 31.7 30.8 3.4 12.9 1 31.6-9.8 51.5-21.7 39.9-75 79.9-146.7 79.6-0.1 0-0.3 0-0.4 0 6.2-49.6 25.8-94.2 49.7-123.7 20.9-25.8 41.7-38.2 59.4-39.9zm-923.8 0.3c5.9 0.4 11.4 2 16.4 4.4 19.5 10.3 25.6 21 27.7 35 2.2 14-1.9 33.3-14.6 53.3-24 37.9-76.7 74.6-145.4 78.3 5.6-65 28.1-111.7 53.5-139.2 22.4-24.2 44.4-33.1 62.4-31.8zM1465 258.7c0 0 0 0 0 0.1 0 0.1 0 0.1 0 0.2l0-0.2zM186.6 265c27.6 0.4 63.9 24.3 99.7 61.3 13.4 13.9 26.3 29 39 44.2-9.2 20.4-18.5 38.6-27.8 54.2-37 55.7-67.1 76-118.7 76.2-61-2.6-105-42.9-106.8-99.4 0.6-51.8 15.8-83.6 36.4-104.2 20.5-20.6 48.1-31 78.3-32.4zm1823.2 8c13 19 25.4 37 34.8 52.4 13.7 22.6 20.2 41 20.4 47.5a36 36 0 0 0 0 0.7c0.6 12.4-4.6 29-13.8 40.2-9.2 11.2-20.2 17.8-38 17.2A36 36 0 0 0 2012 431c-14.7 0-29.5-4.2-38.9-11.9-9.4-7.7-17.1-18.8-17.1-46.8 0.3-19.3 21.7-58.9 53.8-99.3z" fill="#D51D1D"/></svg>
