<?xml version="1.0" encoding="UTF-8" standalone="no"?>
<svg
   xmlns:dc="http://purl.org/dc/elements/1.1/"
   xmlns:cc="http://creativecommons.org/ns#"
   xmlns:rdf="http://www.w3.org/1999/02/22-rdf-syntax-ns#"
   xmlns:svg="http://www.w3.org/2000/svg"
   xmlns="http://www.w3.org/2000/svg"
   viewBox="0 0 721.59273 227.36215"
   height="227.36215"
   width="721.59271"
   version="1.1"
   id="svg4206">
  <metadata
     id="metadata4212">
    <rdf:RDF>
      <cc:Work
         rdf:about="">
        <dc:format>image/svg+xml</dc:format>
        <dc:type
           rdf:resource="http://purl.org/dc/dcmitype/StillImage" />
        <dc:title></dc:title>
      </cc:Work>
    </rdf:RDF>
  </metadata>
  <defs
     id="defs4210" />
  <path
     id="path4222"
     d="M 162.27202,12.570752 C 144.89168,64.297883 128.72634,118.29182 110.40652,149.31033 96.561532,170.1167 81.250497,180.61373 59.900108,180.39177 33.54945,179.61282 12.859576,160.59225 12.108006,135.12751 c 0.2452,-40.056584 24.965908,-57.298049 50.493165,-58.086981 30.111623,0.02794 57.383679,43.864291 76.231569,63.521521 49.24359,54.99509 105.53108,74.25307 150.83796,74.6921 22.70951,-0.80821 43.94336,-10.6751 57.00553,-27.31082"
     style="fill:none;fill-rule:evenodd;stroke:#D51D1D;stroke-width:24.21601295;stroke-linecap:round;stroke-linejoin:round;stroke-miterlimit:4;stroke-dasharray:none;stroke-opacity:1" />
  <path
     id="path4224"
     d="m 200.18244,94.068759 c 56.0954,-0.570715 86.7096,-64.279259 53.77284,-78.980164 -22.88363,-10.5034647 -64.67863,16.387887 -62.63031,79.164922 0.48773,32.194413 31.34949,40.080783 54.909,40.450793 63.00953,-1.19308 74.21561,-63.799906 85.00684,-121.321717 -2.72168,31.256452 -44.00331,121.856297 8.92664,121.722797 47.22476,0.59393 48.40806,-60.209656 54.11417,-92.153752 -3.56174,36.601904 -25.47541,92.201482 20.97221,91.841602 41.25315,1.76418 39.76028,-81.71881 49.24665,-122.22778 13.04736,28.269786 9.86587,77.926304 52.63593,78.909838 57.24552,0.347847 88.87241,-61.731519 46.21578,-78.148308 -26.984,-8.5392462 -57.58117,28.624997 -58.98096,74.0197 -0.87614,28.41227 18.13563,44.46512 43.15567,46.57107 63.64846,4.34379 92.6188,-64.022499 107.51892,-120.878241 -2.38159,44.138614 50.54856,86.677465 51.20192,112.040451 0.50606,14.90938 -10.26,32.7002 -29.90385,32.09154 -14.23159,0.14544 -31.07716,-7.54751 -31.07439,-32.01139 0.27515,-27.510678 45.43586,-66.320986 64.10384,-88.538487"
     style="fill:none;fill-rule:evenodd;stroke:#D51D1D;stroke-width:24.21601295;stroke-linecap:round;stroke-linejoin:round;stroke-miterlimit:4;stroke-dasharray:none;stroke-opacity:1" />
</svg>
